<?xml version="1.0" encoding="UTF-8"?>
<svg width="48px" height="48px" viewBox="0 0 48 48" version="1.1" xmlns="http://www.w3.org/2000/svg" xmlns:xlink="http://www.w3.org/1999/xlink">
    <!-- Generator: Sketch 52.6 (67491) - http://www.bohemiancoding.com/sketch -->
    <title>Artboard</title>
    <desc>Created with Sketch.</desc>
    <g id="Artboard" stroke="none" stroke-width="1" fill="none" fill-rule="evenodd">
        <g id="logo_small" transform="translate(4.000000, 10.000000)" fill="#FFFFFF" fill-rule="nonzero">
            <path d="M23.6894834,0.231397538 C23.2989114,0.297480056 22.908785,0.38002832 22.5199394,0.478383696 C22.4297304,0.466857674 22.339187,0.456154942 22.2484768,0.445891294 C22.2305464,0.44386052 22.2125046,0.441774858 22.1945184,0.439798968 C22.1064254,0.43008418 22.0180538,0.420863364 21.9294596,0.412301176 C21.9135338,0.41081926 21.8975524,0.409337344 21.8816266,0.407855426 C21.7956496,0.399787212 21.7095054,0.392158084 21.6231386,0.385187586 C21.6152314,0.384528956 21.6074912,0.383870326 21.599584,0.383211696 C21.5087624,0.376021654 21.4176066,0.36954513 21.3263396,0.36361746 C21.3078524,0.362409974 21.289365,0.361202486 21.270822,0.360049884 C21.1802788,0.354396644 21.0894016,0.349237378 20.9984128,0.344846512 C20.9857168,0.34424277 20.9730764,0.34369391 20.9603804,0.343145054 C20.8745146,0.339138388 20.7884262,0.335735468 20.702115,0.33282652 C20.6890292,0.332387434 20.6758318,0.331838576 20.6628018,0.331454374 C20.5714232,0.328600312 20.479989,0.326514652 20.3882208,0.324868078 C20.3690654,0.324538762 20.3499098,0.324264334 20.3309214,0.323989904 C20.2380952,0.322672644 20.1450462,0.321794472 20.0517744,0.321739586 C20.0437002,0.321739586 20.0356816,0.321794472 20.027663,0.321794472 C19.9424655,0.321849358 19.857101,0.32261776 19.7715138,0.323825246 C19.7531378,0.32404479 19.7347062,0.324264334 19.7162746,0.324593648 C19.626511,0.326075566 19.536469,0.32810634 19.4462042,0.330905516 C19.4290534,0.331399488 19.4119582,0.332058118 19.3946959,0.332661862 C19.3111134,0.335351268 19.2273636,0.33858953 19.1435026,0.342431538 C19.1310849,0.342980396 19.1188901,0.343474368 19.1065281,0.344023226 C19.0154837,0.34830432 18.924328,0.353353814 18.8328938,0.35889728 C18.8123462,0.36010477 18.7917429,0.361476914 18.7711396,0.362794174 C18.6787031,0.368666956 18.5860439,0.375088596 18.493162,0.382278638 C18.4879833,0.382662838 18.4828046,0.38315681 18.4777374,0.38354101 C18.3886419,0.39051151 18.2994909,0.398305294 18.2100614,0.40648328 C18.1896808,0.408349398 18.1692446,0.410215516 18.1486969,0.41213652 C18.0573742,0.420808478 17.9659957,0.430029294 17.8743388,0.439963626 C17.8569652,0.441829744 17.8395916,0.44386052 17.8221066,0.445781522 C17.739415,0.454947454 17.6563892,0.464662242 17.5733078,0.47492589 C17.5568808,0.476956664 17.5404539,0.478822782 17.5240269,0.480908442 C17.4323144,0.492434464 17.3403791,0.504674 17.2483881,0.51751728 C17.2263926,0.520590886 17.2044529,0.523719376 17.1824575,0.526847868 C17.0902994,0.539965578 16.99803,0.553577258 16.9054265,0.568012228 C16.9016956,0.568615972 16.8977977,0.56916483 16.8939555,0.569768574 C16.8007951,0.584423088 16.707412,0.599900886 16.6140289,0.615817772 C16.5913652,0.61971466 16.5687016,0.62355667 16.5459266,0.62750845 C16.4536015,0.643589992 16.360998,0.660220394 16.2682831,0.677619198 C16.2509652,0.680857456 16.2337586,0.684260378 16.2163851,0.687553528 C16.133582,0.703305756 16.0505006,0.719606842 15.9673078,0.736456788 C15.9477068,0.740408568 15.9283285,0.74425057 15.9088389,0.748257236 C15.816124,0.767302614 15.7232978,0.787006622 15.6303045,0.807369254 C15.6076965,0.81230898 15.5850328,0.817413362 15.5623135,0.822407968 C15.4739421,0.84205709 15.3855149,0.862200186 15.2968649,0.883001904 C15.287677,0.885197338 15.2784891,0.887228114 15.2693011,0.889423546 C15.1746372,0.91181696 15.0797506,0.935143428 14.9848641,0.959018754 C14.9609754,0.964946424 14.9372537,0.970983866 14.9134207,0.977021302 C14.8193137,1.00095152 14.7249282,1.02543059 14.6305985,1.05073295 C14.6150625,1.05490427 14.5994708,1.05924025 14.5839905,1.06346646 C14.4990715,1.08640873 14.4139854,1.11000963 14.3288992,1.1341045 C14.3075164,1.14014194 14.2860221,1.14612449 14.2647506,1.1522717 C14.1707549,1.17922064 14.0764252,1.2068282 13.9820955,1.23514928 C13.959933,1.24184535 13.9376035,1.24865119 13.9154409,1.25540214 C13.8282389,1.28180222 13.7408697,1.30886093 13.6534448,1.33657826 C13.6405817,1.3406947 13.6276072,1.34464648 13.6146884,1.34876291 C13.5186881,1.37933431 13.4226321,1.41078388 13.3264091,1.44278231 C13.3025761,1.45074076 13.2788544,1.45864431 13.2550771,1.46665764 C13.1585756,1.49915004 13.0619072,1.53213642 12.9651273,1.56611073 C12.9531551,1.57028205 12.9411829,1.57461803 12.9292664,1.57884424 C12.8400039,1.61029381 12.7507972,1.6424569 12.6613677,1.67511395 C12.6394836,1.68312729 12.6176553,1.69103084 12.5957712,1.69915394 C12.4994925,1.73461017 12.4032695,1.7708897 12.3068794,1.80782785 C12.2863875,1.81573141 12.2659512,1.82368985 12.2454036,1.83164829 C12.1569208,1.86584216 12.0682708,1.90063976 11.9796766,1.93609599 C11.9651429,1.94191389 11.9506649,1.94756713 11.9360756,1.95343991 C11.8382377,1.99279304 11.7403441,2.03302434 11.6424506,2.07391426 C11.6195642,2.08340952 11.5966778,2.09306942 11.5737915,2.10267444 C11.4744501,2.14444254 11.3751644,2.1867046 11.2756003,2.2300644 C11.2690295,2.23291846 11.2624588,2.2358823 11.2558879,2.23879124 C11.1607229,2.28028492 11.0654466,2.32271166 10.9701145,2.36568724 C10.9483418,2.3755118 10.9266248,2.38528148 10.9048521,2.39516092 C10.8064017,2.43983798 10.7079514,2.48528344 10.6093339,2.53155218 C10.5912921,2.54000458 10.5731945,2.54867654 10.5550414,2.55718384 C10.464888,2.59972036 10.3746789,2.64291548 10.2843585,2.68687902 C10.2682099,2.6947277 10.2520614,2.7024666 10.2358571,2.71037014 C10.1366828,2.75883432 10.0373972,2.80817666 9.9379444,2.85823252 C9.91589334,2.86937434 9.89373082,2.88057106 9.8717354,2.89182264 C9.76994394,2.9434153 9.66809676,2.99561172 9.56608258,3.04890584 C9.47960434,3.09413176 9.3939057,3.14012606 9.30870822,3.18672412 C9.30213746,3.19034658 9.295511,3.19385928 9.28899588,3.19748174 C9.20775206,3.24204902 9.12723212,3.28732982 9.04704622,3.33315946 C9.03685594,3.33897736 9.02677706,3.34468548 9.01653106,3.35055826 C8.938684,3.3953451 8.8613937,3.44073566 8.78460464,3.4866202 C8.77291088,3.49364558 8.76121712,3.50061608 8.74952334,3.50764146 C8.67373658,3.55325158 8.59845094,3.59941054 8.52366652,3.64611838 C8.51175,3.65352796 8.49988916,3.66099242 8.48802834,3.6684569 C8.41324394,3.71543916 8.33896064,3.76297026 8.26528988,3.81099534 C8.2543757,3.8181305 8.24340582,3.82532054 8.23249164,3.8325106 C8.15781858,3.88146874 8.083591,3.93092086 8.00997594,3.9810316 C8.00128912,3.98695926 7.992658,3.99288694 7.98402688,3.9988146 C7.90818446,4.05062682 7.83278746,4.102933 7.7580587,4.1558978 C7.75349258,4.15919094 7.74892646,4.1624841 7.74436028,4.16572236 C7.58816494,4.27670148 7.43453112,4.39009556 7.28329164,4.50590462 C7.27844712,4.50958198 7.27360252,4.51325932 7.268758,4.51693668 C7.19614522,4.57270066 7.12414506,4.6290684 7.05270164,4.6859301 C7.04535128,4.691748 7.03800094,4.697511 7.03065058,4.70338378 C6.96082206,4.75914776 6.8915504,4.81546062 6.82283558,4.87215766 C6.81437152,4.87912816 6.80585176,4.88615354 6.7974434,4.89312404 C6.7292297,4.94965642 6.66168428,5.0066279 6.59452864,5.06414822 C6.586343,5.07117362 6.5781017,5.07825388 6.56991606,5.08527926 C6.50237058,5.14340334 6.4354377,5.20191162 6.36900594,5.26096876 C6.36215676,5.26706108 6.35530752,5.27320828 6.34845828,5.27930062 C6.28063446,5.3397299 6.21342312,5.40065314 6.14676864,5.46212526 C6.14242522,5.46613192 6.13813752,5.47013858 6.13379412,5.47420014 C5.92124594,5.67063646 5.71443326,5.87195764 5.51346748,6.0778343 C5.51257652,6.0787125 5.51174126,6.07953576 5.5108503,6.0804139 C5.44491972,6.14797838 5.37976872,6.2160368 5.31506318,6.28458914 C5.31205622,6.28777252 5.30910492,6.29090104 5.30604228,6.29408442 C5.24250612,6.3614842 5.1796382,6.4293779 5.11732712,6.49771074 C5.11365192,6.50171742 5.10997674,6.5057241 5.10635724,6.5097308 C5.0442689,6.57795384 4.9826817,6.64661596 4.92181842,6.71566234 C4.91853302,6.71939456 4.91524764,6.72318168 4.91190656,6.7269139 C4.85031938,6.7968933 4.78928902,6.86736674 4.72887122,6.9382243 C4.727145,6.94025506 4.72541878,6.94228588 4.72369254,6.94431664 C-1.04913172,13.7237024 -1.27471011,24.4088724 2.65645682,27.2725396 C2.65667956,27.2727044 2.6569023,27.272869 2.65718072,27.2730886 C2.69899986,27.30366 2.74137586,27.3331884 2.78414164,27.3617292 C2.78564512,27.3628818 2.78725998,27.3638148 2.78876346,27.3649124 C2.83086104,27.393069 2.87340408,27.4202922 2.91633692,27.4465826 C2.91845294,27.447845 2.92051328,27.449217 2.92262928,27.4503698 C2.96550644,27.47666 3.00882908,27.5019074 3.05259718,27.5263866 C3.05443478,27.5275392 3.05627238,27.5284174 3.05816564,27.529515 C3.10254628,27.554104 3.1473724,27.5780342 3.192644,27.6008118 C3.19325652,27.601141 3.19386906,27.6014154 3.19448158,27.6017448 C3.33230102,27.6711204 3.47429678,27.7317144 3.62046892,27.7835266 C3.62330882,27.7845694 3.62614874,27.7855574 3.62898866,27.786655 C3.67476142,27.8027366 3.72097964,27.8177754 3.76758768,27.8321006 C3.77243222,27.8335824 3.77722112,27.8351192 3.78206568,27.8366012 C3.82756,27.8503776 3.87349982,27.8631658 3.91982942,27.8752408 C3.9256763,27.8767228 3.93163456,27.8783694 3.93748144,27.8798512 C3.98342124,27.8915968 4.02969516,27.9024092 4.07641456,27.9125082 C4.08248418,27.9137706 4.08872086,27.915088 4.09484616,27.9163502 C4.1417883,27.9262298 4.18906454,27.935231 4.23678626,27.943354 C4.24246608,27.944342 4.24809024,27.9451104 4.25371438,27.9460984 C4.30243842,27.9541116 4.35149656,27.9613018 4.40105588,27.9676684 C4.40489812,27.9681624 4.4089074,27.9735414 4.41280532,27.9739804 C4.46436928,27.9802922 4.51621166,27.9950566 4.56861088,27.9950566 C4.56911206,27.9950566 4.56961322,27.9950566 4.57005868,27.9950566 C4.6228477,27.9950566 4.6760822,27.997691 4.72970648,27.9999962 C4.73265778,28.000106 4.73555338,27.997746 4.73850466,27.9979654 C4.79017998,27.9999962 4.8422451,27.9997218 4.8947557,27.9998864 C4.9016049,27.9998864 4.90839842,27.9993376 4.91524764,27.9993376 C4.93217576,27.9993376 4.94915956,27.998679 4.96619906,27.9984594 C4.98012022,27.998185 4.99404136,27.9979654 5.0080182,27.9975812 C5.02472358,27.997197 5.04154034,27.9964286 5.05824572,27.9958798 C5.07277942,27.995331 5.08725742,27.9948918 5.10173542,27.994343 C5.11788396,27.9935198 5.13414386,27.9926416 5.15034808,27.9917634 C5.16566136,27.9907206 5.18103032,27.9901168 5.19639926,27.9889642 C5.21187958,27.9879762 5.22752696,27.986659 5.24311866,27.9855064 C5.2592672,27.984299 5.27547142,27.9831462 5.29173132,27.9817742 C5.30648776,27.9805666 5.32124418,27.9789202 5.33605628,27.977493 C5.3533742,27.9759014 5.37063644,27.974145 5.38806572,27.972279 C5.40170846,27.970852 5.41546256,27.9690956 5.42916096,27.9675038 C5.44770394,27.9653084 5.4663026,27.9632776 5.48495696,27.9608078 C5.49770872,27.9591612 5.5105162,27.9574048 5.52326798,27.9555388 C5.54298032,27.9528494 5.56274836,27.950105 5.5825164,27.9473058 C5.59443292,27.9455496 5.6064051,27.9435736 5.61832162,27.9415978 C5.63909198,27.9382496 5.65986234,27.9351762 5.68074408,27.9315536 C5.69204804,27.9296326 5.7034077,27.927547 5.71476738,27.925571 C5.736373,27.921784 5.75792294,27.917887 5.77969564,27.9138804 C5.79044276,27.9118496 5.80130126,27.9095994 5.81210408,27.9075136 C5.83443362,27.9031228 5.85681882,27.8987868 5.87931542,27.8940666 C5.88978412,27.891926 5.90030852,27.8894562 5.91077722,27.887206 C5.93366358,27.8822662 5.95655,27.8773814 5.9795477,27.8721672 C5.99029488,27.8696424 6.00120906,27.866953 6.01201188,27.8643734 C6.03478688,27.8590494 6.05750618,27.8537804 6.08044822,27.8480724 C6.09264318,27.8449988 6.10489382,27.8417604 6.1171444,27.838632 C6.13880576,27.8330884 6.1603557,27.8277096 6.18212834,27.821782 C6.1965507,27.8180498 6.2110287,27.8137686 6.225451,27.809817 C6.24516334,27.8043832 6.26482,27.7991142 6.28458806,27.793406 C6.3031867,27.7880822 6.32184106,27.7824838 6.3404954,27.7768854 C6.35630982,27.7721104 6.37206858,27.7676098 6.38805006,27.7627798 C6.42263022,27.7523514 6.45743312,27.7412646 6.49234734,27.729958 L32.803162,18.8082144 L35.1817304,18.0016673 L38.472914,16.8856741 C42.7766668,15.2268053 38.0252098,-2.1952689 23.6894834,0.231397538 Z M8.72218216,18.3441548 C8.6153234,20.264774 8.49671516,22.5852364 7.75945082,24.024562 C7.55815094,24.4175992 7.31068852,24.7449932 7.00481288,24.980563 C7.00269688,24.9822096 7.00063652,24.983966 6.99852052,24.9855576 C6.57876988,25.3062554 6.05466628,25.482878 5.5155835,25.4760172 C4.4273947,25.4622958 3.27800852,24.7009746 2.80196072,22.865703 C2.48043774,21.6263264 2.39546302,20.1289866 2.53283696,18.54114 C2.6796773,16.8441256 3.09029568,15.0830594 3.72036712,13.448505 C4.40562202,11.6706986 5.32603306,10.073741 6.45592964,8.70176038 C7.67447612,7.2222035 9.1105824,6.04418932 10.7243783,5.20031994 C10.8033391,5.1590458 10.8823555,5.1184303 10.961372,5.07814412 C10.9848709,5.066179 11.0084255,5.05437856 11.0318688,5.04252322 C11.090616,5.01283 11.1492519,4.98346608 11.2080549,4.9543766 C11.2312754,4.94290546 11.2544402,4.93132456 11.2776606,4.91990832 C11.3562316,4.8812687 11.4348583,4.8429584 11.513485,4.80536162 C11.5203899,4.80206846 11.5272391,4.7988851 11.534144,4.79559194 C11.6061442,4.76123342 11.6782001,4.72736888 11.750256,4.69383364 C11.7757039,4.6820332 11.8011517,4.67034252 11.8265439,4.65859696 C11.8831752,4.6325262 11.9396394,4.60678476 11.9962149,4.58126284 C12.0211616,4.57001126 12.0461084,4.5586499 12.0711665,4.54750808 C12.1481783,4.51309466 12.2251901,4.47906546 12.3020905,4.44569488 C12.3177936,4.43888906 12.333441,4.43224786 12.3491998,4.42549692 C12.4122347,4.39832844 12.475214,4.37148928 12.538249,4.34497942 C12.567205,4.33279478 12.5960496,4.32077478 12.6250056,4.30875478 C12.6772935,4.28702 12.7296927,4.26550476 12.7819249,4.24420906 C12.8103241,4.23268304 12.8386675,4.22104726 12.867011,4.20963102 C12.941517,4.17966336 13.0159674,4.1500799 13.0904734,4.12099042 C13.1151974,4.11133052 13.139977,4.10199994 13.1647009,4.09239492 C13.2182139,4.07175786 13.2717268,4.05123056 13.3252954,4.03108746 C13.3585391,4.0185186 13.3918385,4.0061693 13.4251379,3.99376512 C13.4719687,3.9764212 13.5188551,3.95924194 13.5655745,3.94222734 C13.5984285,3.93031712 13.6313381,3.91824222 13.664192,3.90649666 C13.7357467,3.88091988 13.8072458,3.85561752 13.8788005,3.8309189 C13.9117658,3.81950266 13.9447311,3.8084706 13.977585,3.79721902 C14.0223554,3.78201564 14.0669588,3.76681228 14.1116736,3.75193822 C14.1497062,3.73931448 14.1875717,3.72680052 14.2256043,3.71434144 C14.2661984,3.70105906 14.3068481,3.68799624 14.3474979,3.6749883 C14.3855305,3.66280366 14.4235074,3.65056412 14.46154,3.6386539 C14.5293639,3.6174131 14.5971878,3.5965016 14.6649002,3.5759743 C14.7057728,3.5635701 14.7468123,3.551605 14.7876291,3.53947524 C14.8243253,3.52860784 14.8610771,3.51779534 14.897829,3.5071475 C14.9403164,3.49485308 14.9826924,3.4827233 15.0251797,3.4707582 C15.0596485,3.46104342 15.0940616,3.4514384 15.128419,3.44194314 C15.1717416,3.42997804 15.2151199,3.41790316 15.2583312,3.40626738 C15.2820528,3.39990062 15.3057745,3.39380828 15.3293291,3.3875513 C15.4168653,3.36427972 15.5044015,3.34172166 15.5918821,3.31976732 C15.6228427,3.31197354 15.6537476,3.30423464 15.684764,3.29660552 C15.7307595,3.28529904 15.776755,3.27415722 15.8228062,3.26323494 C15.8519292,3.25631932 15.8812194,3.2495135 15.9102867,3.24270764 C16.07038,3.2053853 16.2304732,3.1702035 16.3904552,3.13716224 C16.4179076,3.1314541 16.4453602,3.12580086 16.4728127,3.1202574 C16.5209799,3.11054262 16.5690914,3.10099248 16.6173143,3.0916619 C16.6432076,3.08666728 16.669101,3.08178244 16.69505,3.0768976 C16.8075886,3.05554702 16.9201272,3.03507462 17.0326102,3.01591948 C17.0332784,3.01586458 17.0338352,3.01569992 17.0345034,3.01559016 C12.5620264,6.12745104 9.10250812,11.5063156 8.72218216,18.3441548 Z" id="Shape"></path>
        </g>
    </g>
</svg>