<?xml version="1.0" encoding="UTF-8"?>
<svg width="300px" height="150px" viewBox="0 0 300 150" version="1.1" xmlns="http://www.w3.org/2000/svg" xmlns:xlink="http://www.w3.org/1999/xlink">
    <!-- Generator: Sketch 52.6 (67491) - http://www.bohemiancoding.com/sketch -->
    <title>Artboard</title>
    <desc>Created with Sketch.</desc>
    <g id="Artboard" stroke="none" stroke-width="1" fill="none" fill-rule="evenodd">
        <g id="logo_pink" transform="translate(50.000000, 4.000000)" fill="#FF2D55" fill-rule="nonzero">
            <path d="M118.403889,1.43444444 C116.455556,1.76888889 114.509444,2.18666667 112.569722,2.68444444 C112.119722,2.62611111 111.668056,2.57194444 111.215556,2.52 C111.126111,2.50972222 111.036111,2.49916667 110.946389,2.48916667 C110.506944,2.44 110.066111,2.39333333 109.624167,2.35 C109.544722,2.3425 109.465,2.335 109.385556,2.3275 C108.956667,2.28666667 108.526944,2.24805556 108.096111,2.21277778 C108.056944,2.20944444 108.018056,2.20611111 107.978889,2.20277778 C107.525833,2.16638889 107.071111,2.13361111 106.615556,2.10361111 C106.523333,2.0975 106.431111,2.09138889 106.338611,2.08555556 C105.886944,2.05694444 105.433889,2.03083333 104.98,2.00861111 C104.916667,2.00555556 104.853611,2.00277778 104.790278,2 C104.361944,1.97972222 103.9325,1.9625 103.501944,1.94777778 C103.436667,1.94555556 103.371111,1.94277778 103.305833,1.94083333 C102.850278,1.92638889 102.393889,1.91583333 101.936389,1.9075 C101.840833,1.90583333 101.745278,1.90444444 101.650278,1.90305556 C101.187222,1.89638889 100.723333,1.89194444 100.258056,1.89166667 C100.217778,1.89166667 100.177778,1.89194444 100.137778,1.89194444 C99.7127778,1.89222222 99.2869444,1.89611111 98.8602778,1.90222222 C98.7683333,1.90333333 98.6763889,1.90444444 98.5844444,1.90611111 C98.1366667,1.91361111 97.6875,1.92416667 97.2375,1.93805556 C97.1519444,1.94055556 97.0663889,1.94388889 96.9805556,1.94694444 C96.5636111,1.96055556 96.1458333,1.97694444 95.7275,1.99638889 C95.6658333,1.99916667 95.6047222,2.00166667 95.5430556,2.00444444 C95.0888889,2.02611111 94.6341667,2.05166667 94.1780556,2.07972222 C94.0755556,2.08611111 93.9727778,2.09277778 93.87,2.09944444 C93.4086111,2.12916667 92.9463889,2.16166667 92.4833333,2.19805556 C92.4575,2.2 92.4316667,2.2025 92.4061111,2.20444444 C91.9619444,2.23972222 91.5169444,2.27916667 91.0711111,2.32055556 C90.9691667,2.33 90.8672222,2.33944444 90.765,2.34916667 C90.3094444,2.39305556 89.8536111,2.43972222 89.3963889,2.49 C89.3097222,2.49944444 89.2230556,2.50972222 89.1361111,2.51944444 C88.7233333,2.56583333 88.3094444,2.615 87.895,2.66694444 C87.8130556,2.67722222 87.7311111,2.68666667 87.6491667,2.69722222 C87.1916667,2.75555556 86.7330556,2.8175 86.2741667,2.8825 C86.1644444,2.89805556 86.055,2.91388889 85.9452778,2.92972222 C85.4855556,2.99611111 85.0252778,3.065 84.5636111,3.13805556 C84.5447222,3.14111111 84.5255556,3.14388889 84.5063889,3.14694444 C84.0416667,3.22111111 83.5758333,3.29944444 83.1097222,3.38 C82.9966667,3.39972222 82.8836111,3.41916667 82.7702778,3.43916667 C82.3094444,3.52055556 81.8475,3.60472222 81.385,3.69277778 C81.2988889,3.70916667 81.2127778,3.72638889 81.1263889,3.74305556 C80.7130556,3.82277778 80.2988889,3.90527778 79.8838889,3.99055556 C79.7863889,4.01055556 79.6894444,4.03 79.5922222,4.05027778 C79.1297222,4.14666667 78.6666667,4.24638889 78.2027778,4.34944444 C78.09,4.37444444 77.9769444,4.40027778 77.8638889,4.42555556 C77.4230556,4.525 76.9819444,4.62694444 76.5397222,4.73222222 C76.4938889,4.74333333 76.4480556,4.75361111 76.4022222,4.76472222 C75.93,4.87805556 75.4566667,4.99611111 74.9830556,5.11694444 C74.8641667,5.14694444 74.7455556,5.1775 74.6266667,5.20805556 C74.1572222,5.32916667 73.6866667,5.45305556 73.2158333,5.58111111 C73.1383333,5.60222222 73.0608333,5.62416667 72.9833333,5.64555556 C72.5597222,5.76166667 72.1355556,5.88111111 71.7108333,6.00305556 C71.6041667,6.03361111 71.4972222,6.06388889 71.3908333,6.095 C70.9216667,6.23138889 70.4513889,6.37111111 69.9808333,6.51444444 C69.87,6.54833333 69.7588889,6.58277778 69.6480556,6.61694444 C69.2130556,6.75083333 68.7775,6.8875 68.3411111,7.02777778 C68.2769444,7.04861111 68.2122222,7.06861111 68.1477778,7.08944444 C67.6688889,7.24416667 67.1897222,7.40333333 66.7097222,7.56527778 C66.5911111,7.60555556 66.4725,7.64555556 66.3538889,7.68611111 C65.8725,7.85055556 65.3902778,8.0175 64.9075,8.18944444 C64.8477778,8.21055556 64.7880556,8.2325 64.7286111,8.25388889 C64.2836111,8.41305556 63.8383333,8.57583333 63.3925,8.74111111 C63.2833333,8.78166667 63.1744444,8.82166667 63.0652778,8.8625 C62.5852778,9.04222222 62.105,9.22555556 61.6241667,9.41277778 C61.5219444,9.4525 61.4197222,9.49305556 61.3175,9.53333333 C60.8761111,9.70638889 60.4341667,9.8825 59.9919444,10.0619444 C59.9194444,10.0913889 59.8469444,10.12 59.7744444,10.1497222 C59.2863889,10.3488889 58.7980556,10.5525 58.3094444,10.7594444 C58.1952778,10.8075 58.0811111,10.8563889 57.9669444,10.905 C57.4713889,11.1163889 56.9758333,11.3302778 56.4791667,11.5497222 C56.4463889,11.5641667 56.4136111,11.5791667 56.3808333,11.5938889 C55.9061111,11.8038889 55.4308333,12.0186111 54.9552778,12.2361111 C54.8466667,12.2858333 54.7383333,12.3352778 54.6297222,12.3852778 C54.1386111,12.6113889 53.6475,12.8413889 53.1555556,13.0755556 C53.0655556,13.1183333 52.9752778,13.1622222 52.885,13.2052778 C52.4352778,13.4205556 51.985,13.6391667 51.5344444,13.8616667 C51.4538889,13.9013889 51.3733333,13.9405556 51.2925,13.9805556 C50.7977778,14.2258333 50.3025,14.4755556 49.8066667,14.7288889 C49.6966667,14.7852778 49.5861111,14.8419444 49.4761111,14.8988889 C48.9683333,15.16 48.4602778,15.4241667 47.9513889,15.6938889 C47.52,15.9227778 47.0925,16.1555556 46.6675,16.3913889 C46.6347222,16.4097222 46.6016667,16.4275 46.5688889,16.4458333 C46.1638889,16.6713889 45.7619444,16.9005556 45.3622222,17.1325 C45.3113889,17.1619444 45.2608333,17.1908333 45.21,17.2205556 C44.8216667,17.4472222 44.4361111,17.6769444 44.0530556,17.9091667 C43.9947222,17.9447222 43.9363889,17.98 43.8780556,18.0155556 C43.5,18.2463889 43.1244444,18.48 42.7513889,18.7163889 C42.6919444,18.7538889 42.6327778,18.7916667 42.5736111,18.8294444 C42.2005556,19.0672222 41.83,19.3077778 41.4625,19.5508333 C41.4080556,19.5869444 41.3533333,19.6233333 41.2988889,19.6597222 C40.9263889,19.9075 40.5561111,20.1577778 40.1888889,20.4113889 C40.1455556,20.4413889 40.1025,20.4713889 40.0594444,20.5013889 C39.6811111,20.7636111 39.305,21.0283333 38.9322222,21.2963889 C38.9094444,21.3130556 38.8866667,21.3297222 38.8638889,21.3461111 C38.0847222,21.9077778 37.3183333,22.4816667 36.5638889,23.0677778 C36.5397222,23.0863889 36.5155556,23.105 36.4913889,23.1236111 C36.1291667,23.4058333 35.77,23.6911111 35.4136111,23.9788889 C35.3769444,24.0083333 35.3402778,24.0375 35.3036111,24.0672222 C34.9552778,24.3494444 34.6097222,24.6344444 34.2669444,24.9213889 C34.2247222,24.9566667 34.1822222,24.9922222 34.1402778,25.0275 C33.8,25.3136111 33.4630556,25.6019444 33.1280556,25.8930556 C33.0872222,25.9286111 33.0461111,25.9644444 33.0052778,26 C32.6683333,26.2941667 32.3344444,26.5902778 32.0030556,26.8891667 C31.9688889,26.92 31.9347222,26.9511111 31.9005556,26.9819444 C31.5622222,27.2877778 31.2269444,27.5961111 30.8944444,27.9072222 C30.8727778,27.9275 30.8513889,27.9477778 30.8297222,27.9683333 C29.7694444,28.9625 28.7377778,29.9813889 27.7352778,31.0233333 C27.7308333,31.0277778 27.7266667,31.0319444 27.7222222,31.0363889 C27.3933333,31.3783333 27.0683333,31.7227778 26.7455556,32.0697222 C26.7305556,32.0858333 26.7158333,32.1016667 26.7005556,32.1177778 C26.3836111,32.4588889 26.07,32.8025 25.7591667,33.1483333 C25.7408333,33.1686111 25.7225,33.1888889 25.7044444,33.2091667 C25.3947222,33.5544444 25.0875,33.9019444 24.7838889,34.2513889 C24.7675,34.2702778 24.7511111,34.2894444 24.7344444,34.3083333 C24.4272222,34.6625 24.1227778,35.0191667 23.8213889,35.3777778 C23.8127778,35.3880556 23.8041667,35.3983333 23.7955556,35.4086111 C-5.00166667,69.7188889 -6.12694444,123.796944 13.4833333,138.29 C13.4844444,138.290833 13.4855556,138.291667 13.4869444,138.292778 C13.6955556,138.447222 13.9069444,138.596667 14.1202778,138.741389 C14.1277778,138.746944 14.1358333,138.751944 14.1433333,138.757222 C14.3533333,138.899722 14.5655556,139.0375 14.7797222,139.170833 C14.7902778,139.177222 14.8005556,139.183889 14.8111111,139.19 C15.025,139.323056 15.2411111,139.450833 15.4594444,139.574722 C15.4686111,139.580278 15.4777778,139.585 15.4872222,139.590278 C15.7086111,139.715 15.9322222,139.835833 16.1580556,139.951111 C16.1611111,139.952778 16.1641667,139.954167 16.1672222,139.955833 C16.8547222,140.306667 17.5630556,140.613611 18.2922222,140.875556 C18.3063889,140.880833 18.3205556,140.885833 18.3347222,140.891389 C18.5630556,140.972778 18.7936111,141.048889 19.0261111,141.121389 C19.0502778,141.128889 19.0741667,141.136667 19.0983333,141.144167 C19.3252778,141.213889 19.5544444,141.278889 19.7855556,141.339722 C19.8147222,141.3475 19.8444444,141.355556 19.8736111,141.363056 C20.1027778,141.4225 20.3336111,141.477222 20.5666667,141.528333 C20.5969444,141.534722 20.6280556,141.541389 20.6586111,141.547778 C20.8927778,141.597778 21.1286111,141.643333 21.3666667,141.684444 C21.395,141.689444 21.4230556,141.693611 21.4511111,141.698333 C21.6941667,141.738889 21.9388889,141.775556 22.1861111,141.8075 C22.2052778,141.81 22.2252778,141.837222 22.2447222,141.839444 C22.5019444,141.871389 22.7605556,141.946111 23.0219444,141.946111 C23.0244444,141.946111 23.0269444,141.946111 23.0291667,141.946111 C23.2925,141.946111 23.5580556,141.959444 23.8255556,141.971111 C23.8402778,141.971667 23.8547222,141.959722 23.8694444,141.960833 C24.1272222,141.971111 24.3869444,141.969722 24.6488889,141.970556 C24.6830556,141.970556 24.7169444,141.967778 24.7511111,141.967778 C24.8355556,141.967778 24.9202778,141.964444 25.0052778,141.963333 C25.0747222,141.962222 25.1441667,141.961111 25.2138889,141.959167 C25.2972222,141.957222 25.3811111,141.953333 25.4644444,141.950556 C25.5369444,141.947778 25.6091667,141.945556 25.6813889,141.9425 C25.7619444,141.938611 25.8430556,141.933889 25.9238889,141.929444 C26.0002778,141.924444 26.0769444,141.921111 26.1536111,141.915556 C26.2308333,141.910556 26.3088889,141.903889 26.3866667,141.897778 C26.4672222,141.891667 26.5480556,141.885833 26.6291667,141.878889 C26.7027778,141.8725 26.7763889,141.864444 26.8502778,141.857222 C26.9366667,141.848889 27.0227778,141.840278 27.1097222,141.830833 C27.1777778,141.823611 27.2463889,141.814722 27.3147222,141.806667 C27.4072222,141.795556 27.5,141.785278 27.5930556,141.772778 C27.6566667,141.764444 27.7205556,141.755278 27.7841667,141.746111 C27.8825,141.7325 27.9811111,141.718889 28.0797222,141.704444 C28.1391667,141.695556 28.1988889,141.685278 28.2583333,141.675556 C28.3619444,141.658889 28.4655556,141.643056 28.5697222,141.625 C28.6261111,141.615278 28.6827778,141.604444 28.7394444,141.594444 C28.8472222,141.575278 28.9547222,141.555833 29.0633333,141.535278 C29.1169444,141.525 29.1711111,141.513611 29.225,141.503056 C29.3363889,141.480833 29.4480556,141.458889 29.5602778,141.435 C29.6125,141.424167 29.665,141.411667 29.7172222,141.400278 C29.8313889,141.375278 29.9455556,141.350556 30.0602778,141.324167 C30.1138889,141.311389 30.1683333,141.297778 30.2222222,141.284722 C30.3358333,141.257778 30.4491667,141.231111 30.5636111,141.202222 C30.6244444,141.186944 30.6855556,141.170278 30.7466667,141.154444 C30.8547222,141.126667 30.9622222,141.099167 31.0708333,141.069444 C31.1427778,141.050278 31.215,141.028889 31.2869444,141.008889 C31.3852778,140.981389 31.4833333,140.954722 31.5819444,140.925833 C31.6747222,140.898889 31.7677778,140.870556 31.8608333,140.842222 C31.9397222,140.818333 32.0183333,140.795556 32.0980556,140.771111 C32.2705556,140.718056 32.4441667,140.662222 32.6183333,140.605 L163.866667,95.4519444 L175.731944,91.37 L192.149722,85.7219444 C213.618611,77.3263889 189.916389,-10.8469444 118.403889,1.43444444 Z M43.7408333,93.1033333 C43.2077778,102.823611 42.6161111,114.567222 38.9383333,121.851944 C37.9341667,123.841111 36.6997222,125.498056 35.1738889,126.690278 C35.1633333,126.698611 35.1530556,126.7075 35.1425,126.715556 C33.0486111,128.338611 30.4341667,129.232222 27.745,129.1975 C22.3166667,129.128056 16.5830556,125.275 14.2083333,115.986944 C12.6044444,109.714444 12.1805556,102.136111 12.8658333,94.1002778 C13.5983333,85.5116667 15.6466667,76.5988889 18.7897222,68.3263889 C22.2080556,59.3288889 26.7994444,51.2463889 32.4358333,44.3027778 C38.5144444,36.8147222 45.6783333,30.8527778 53.7286111,26.5819444 C54.1225,26.3730556 54.5166667,26.1675 54.9108333,25.9636111 C55.0280556,25.9030556 55.1452778,25.8433333 55.2622222,25.7833333 C55.5552778,25.6330556 55.8480556,25.4844444 56.1411111,25.3372222 C56.2569444,25.2791667 56.3725,25.2205556 56.4883333,25.1627778 C56.8805556,24.9672222 57.2727778,24.7733333 57.665,24.5830556 C57.6994444,24.5663889 57.7336111,24.5502778 57.7680556,24.5336111 C58.1272222,24.3597222 58.4866667,24.1883333 58.8461111,24.0186111 C58.9730556,23.9588889 59.1,23.8997222 59.2266667,23.8402778 C59.5088889,23.7083333 59.7908333,23.5780556 60.0730556,23.4488889 C60.1975,23.3919444 60.3219444,23.3344444 60.4466667,23.2780556 C60.8308333,23.1038889 61.215,22.9316667 61.5988889,22.7625 C61.6772222,22.7280556 61.7552778,22.6944444 61.8338889,22.6602778 C62.1480556,22.5227778 62.4622222,22.3869444 62.7766667,22.2527778 C62.9211111,22.1911111 63.065,22.1302778 63.2094444,22.0694444 C63.4702778,21.9594444 63.7313889,21.8505556 63.9922222,21.7427778 C64.1338889,21.6844444 64.2752778,21.6255556 64.4166667,21.5677778 C64.7883333,21.4161111 65.1597222,21.2663889 65.5313889,21.1191667 C65.6547222,21.0702778 65.7783333,21.0230556 65.9016667,20.9747222 C66.1686111,20.8702778 66.4355556,20.7663889 66.7027778,20.6644444 C66.8686111,20.6008333 67.0347222,20.5383333 67.2008333,20.4755556 C67.4344444,20.3877778 67.6680556,20.3008333 67.9013889,20.2147222 C68.0652778,20.1544444 68.2294444,20.0933333 68.3933333,20.0338889 C68.7502778,19.9044444 69.1069444,19.7763889 69.4638889,19.6513889 C69.6283333,19.5936111 69.7927778,19.5377778 69.9569444,19.4808333 C70.18,19.4038889 70.4027778,19.3269444 70.6258333,19.2516667 C70.8152778,19.1877778 71.0044444,19.1244444 71.1941667,19.0613889 C71.3966667,18.9941667 71.5994444,18.9280556 71.8022222,18.8622222 C71.9919444,18.8005556 72.1813889,18.7386111 72.3711111,18.6783333 C72.7094444,18.5708333 73.0477778,18.465 73.3855556,18.3611111 C73.5897222,18.2983333 73.7941667,18.2377778 73.9980556,18.1763889 C74.1811111,18.1213889 74.3644444,18.0666667 74.5477778,18.0127778 C74.7597222,17.9505556 74.9711111,17.8891667 75.1830556,17.8286111 C75.355,17.7794444 75.5266667,17.7308333 75.6983333,17.6827778 C75.9144444,17.6222222 76.1305556,17.5611111 76.3463889,17.5022222 C76.4644444,17.47 76.5827778,17.4391667 76.7005556,17.4075 C77.1372222,17.2897222 77.5738889,17.1755556 78.0102778,17.0644444 C78.1647222,17.025 78.3188889,16.9858333 78.4736111,16.9472222 C78.7030556,16.89 78.9325,16.8336111 79.1622222,16.7783333 C79.3077778,16.7433333 79.4536111,16.7088889 79.5988889,16.6744444 C80.3975,16.4855556 81.1961111,16.3075 81.9941667,16.1402778 C82.1311111,16.1113889 82.2680556,16.0827778 82.405,16.0547222 C82.6452778,16.0055556 82.8852778,15.9572222 83.1258333,15.91 C83.255,15.8847222 83.3841667,15.86 83.5133333,15.8352778 C84.0747222,15.7272222 84.6361111,15.6236111 85.1972222,15.5266667 C85.2005556,15.5263889 85.2033333,15.5255556 85.2066667,15.525 C62.8955556,31.2744444 45.6380556,58.4969444 43.7408333,93.1033333 Z" id="Shape"></path>
        </g>
    </g>
</svg>