<?xml version="1.0" encoding="utf-8"?>
<!-- Generator: Adobe Illustrator 16.0.0, SVG Export Plug-In . SVG Version: 6.00 Build 0)  -->
<!DOCTYPE svg PUBLIC "-//W3C//DTD SVG 1.1//EN" "http://www.w3.org/Graphics/SVG/1.1/DTD/svg11.dtd">
<svg version="1.1" id="logo" xmlns="http://www.w3.org/2000/svg" xmlns:xlink="http://www.w3.org/1999/xlink" x="0px" y="0px"
	 width="1024px" height="1024px" viewBox="0 0 1024 1024" enable-background="new 0 0 1024 1024" xml:space="preserve">
<path fill="#FF2D55" d="M578.254,261.164c-7.014,1.204-14.02,2.708-21.003,4.5c-1.62-0.21-3.246-0.405-4.875-0.592
	c-0.322-0.037-0.646-0.075-0.969-0.111c-1.582-0.177-3.169-0.345-4.76-0.501c-0.286-0.027-0.573-0.054-0.859-0.081
	c-1.544-0.147-3.091-0.286-4.642-0.413c-0.141-0.012-0.281-0.024-0.422-0.036c-1.631-0.131-3.268-0.249-4.908-0.357
	c-0.332-0.022-0.664-0.044-0.997-0.065c-1.626-0.103-3.257-0.197-4.891-0.277c-0.228-0.011-0.455-0.021-0.683-0.031
	c-1.542-0.073-3.088-0.135-4.638-0.188c-0.235-0.008-0.471-0.018-0.706-0.025c-1.64-0.052-3.283-0.09-4.93-0.12
	c-0.344-0.006-0.688-0.011-1.03-0.016c-1.667-0.024-3.337-0.04-5.012-0.041c-0.145,0-0.289,0.001-0.433,0.001
	c-1.53,0.001-3.063,0.015-4.599,0.037c-0.331,0.004-0.662,0.008-0.993,0.014c-1.612,0.027-3.229,0.065-4.849,0.115
	c-0.308,0.009-0.616,0.021-0.925,0.032c-1.501,0.049-3.005,0.108-4.511,0.178c-0.222,0.01-0.442,0.019-0.664,0.029
	c-1.635,0.078-3.272,0.17-4.914,0.271c-0.369,0.023-0.739,0.047-1.109,0.071c-1.661,0.107-3.325,0.224-4.992,0.355
	c-0.093,0.007-0.186,0.016-0.278,0.023c-1.599,0.127-3.201,0.269-4.806,0.418c-0.367,0.034-0.734,0.068-1.102,0.103
	c-1.64,0.158-3.281,0.326-4.927,0.507c-0.312,0.034-0.624,0.071-0.937,0.106c-1.486,0.167-2.976,0.344-4.468,0.531
	c-0.295,0.037-0.59,0.071-0.885,0.109c-1.647,0.21-3.298,0.433-4.95,0.667c-0.395,0.056-0.789,0.113-1.184,0.17
	c-1.655,0.239-3.312,0.487-4.974,0.75c-0.068,0.011-0.137,0.021-0.206,0.032c-1.673,0.267-3.35,0.549-5.028,0.839
	c-0.407,0.071-0.814,0.141-1.222,0.213c-1.659,0.293-3.322,0.596-4.987,0.913c-0.31,0.059-0.62,0.121-0.931,0.181
	c-1.488,0.287-2.979,0.584-4.473,0.891c-0.351,0.072-0.7,0.142-1.05,0.215c-1.665,0.347-3.332,0.706-5.002,1.077
	c-0.406,0.09-0.813,0.183-1.22,0.274c-1.587,0.358-3.175,0.725-4.767,1.104c-0.165,0.04-0.33,0.077-0.495,0.117
	c-1.7,0.408-3.404,0.833-5.109,1.268c-0.428,0.108-0.855,0.218-1.283,0.328c-1.69,0.436-3.384,0.882-5.079,1.343
	c-0.279,0.076-0.558,0.155-0.837,0.232c-1.525,0.418-3.052,0.848-4.581,1.287c-0.384,0.11-0.769,0.219-1.152,0.331
	c-1.689,0.491-3.382,0.994-5.076,1.51c-0.399,0.122-0.799,0.246-1.198,0.369c-1.566,0.482-3.134,0.974-4.705,1.479
	c-0.231,0.075-0.464,0.147-0.696,0.222c-1.724,0.557-3.449,1.13-5.177,1.713c-0.427,0.145-0.854,0.289-1.281,0.435
	c-1.733,0.592-3.469,1.193-5.207,1.812c-0.215,0.076-0.43,0.155-0.644,0.232c-1.602,0.573-3.205,1.159-4.81,1.754
	c-0.393,0.146-0.785,0.29-1.178,0.437c-1.728,0.647-3.457,1.307-5.188,1.981c-0.368,0.143-0.736,0.289-1.104,0.434
	c-1.589,0.623-3.18,1.257-4.772,1.903c-0.261,0.106-0.522,0.209-0.783,0.316c-1.757,0.717-3.515,1.45-5.274,2.195
	c-0.411,0.173-0.822,0.349-1.233,0.524c-1.784,0.761-3.568,1.531-5.356,2.321c-0.118,0.052-0.236,0.106-0.354,0.159
	c-1.709,0.756-3.42,1.529-5.132,2.312c-0.391,0.179-0.781,0.357-1.172,0.537c-1.768,0.814-3.536,1.642-5.307,2.485
	c-0.324,0.154-0.649,0.312-0.974,0.467c-1.619,0.775-3.24,1.562-4.862,2.363c-0.29,0.143-0.58,0.284-0.871,0.428
	c-1.781,0.883-3.564,1.782-5.349,2.694c-0.396,0.203-0.794,0.407-1.19,0.612c-1.828,0.94-3.657,1.891-5.489,2.862
	c-1.553,0.824-3.092,1.662-4.622,2.511c-0.118,0.066-0.237,0.13-0.355,0.196c-1.458,0.812-2.905,1.637-4.344,2.472
	c-0.183,0.106-0.365,0.21-0.548,0.317c-1.398,0.816-2.786,1.643-4.165,2.479c-0.21,0.128-0.42,0.255-0.63,0.383
	c-1.361,0.831-2.713,1.672-4.056,2.523c-0.214,0.135-0.427,0.271-0.64,0.407c-1.343,0.856-2.677,1.722-4,2.597
	c-0.196,0.13-0.393,0.261-0.589,0.392c-1.341,0.892-2.674,1.793-3.996,2.706c-0.156,0.108-0.311,0.216-0.466,0.324
	c-1.362,0.944-2.716,1.897-4.058,2.862c-0.082,0.06-0.164,0.12-0.246,0.179c-2.805,2.022-5.564,4.088-8.28,6.198
	c-0.087,0.067-0.174,0.134-0.261,0.201c-1.304,1.016-2.597,2.043-3.88,3.079c-0.132,0.106-0.264,0.211-0.396,0.318
	c-1.254,1.016-2.498,2.042-3.732,3.075c-0.152,0.127-0.305,0.255-0.456,0.382c-1.225,1.03-2.438,2.068-3.644,3.116
	c-0.147,0.128-0.295,0.257-0.442,0.385c-1.213,1.059-2.415,2.125-3.608,3.201c-0.123,0.111-0.246,0.223-0.369,0.334
	c-1.218,1.101-2.425,2.211-3.622,3.331c-0.078,0.073-0.155,0.146-0.233,0.22c-3.817,3.579-7.531,7.247-11.14,10.998
	c-0.016,0.016-0.031,0.031-0.047,0.047c-1.184,1.231-2.354,2.471-3.516,3.72c-0.054,0.058-0.107,0.115-0.162,0.173
	c-1.141,1.228-2.27,2.465-3.389,3.71c-0.066,0.073-0.132,0.146-0.197,0.219c-1.115,1.243-2.221,2.494-3.314,3.752
	c-0.059,0.068-0.118,0.137-0.178,0.205c-1.106,1.275-2.202,2.559-3.287,3.85c-0.031,0.037-0.062,0.074-0.093,0.111
	c-103.67,123.517-107.721,318.198-37.124,370.373c0.004,0.003,0.008,0.006,0.013,0.01c0.751,0.556,1.512,1.094,2.28,1.615
	c0.027,0.02,0.056,0.038,0.083,0.057c0.756,0.513,1.52,1.009,2.291,1.489c0.038,0.023,0.075,0.047,0.113,0.069
	c0.77,0.479,1.548,0.939,2.334,1.385c0.033,0.02,0.066,0.037,0.1,0.056c0.797,0.449,1.602,0.884,2.415,1.299
	c0.011,0.006,0.022,0.011,0.033,0.017c2.475,1.263,5.025,2.368,7.65,3.311c0.051,0.019,0.102,0.037,0.153,0.057
	c0.822,0.293,1.652,0.567,2.489,0.828c0.087,0.027,0.173,0.055,0.26,0.082c0.817,0.251,1.642,0.485,2.474,0.704
	c0.105,0.028,0.212,0.057,0.317,0.084c0.825,0.214,1.656,0.411,2.495,0.595c0.109,0.023,0.221,0.047,0.331,0.07
	c0.843,0.18,1.692,0.344,2.549,0.492c0.102,0.018,0.203,0.033,0.304,0.05c0.875,0.146,1.756,0.278,2.646,0.393
	c0.069,0.009,0.141,0.107,0.211,0.115c0.926,0.115,1.857,0.384,2.798,0.384c0.009,0,0.018,0,0.026,0c0.948,0,1.904,0.048,2.867,0.09
	c0.053,0.002,0.105-0.041,0.158-0.037c0.928,0.037,1.863,0.032,2.806,0.035c0.123,0,0.245-0.01,0.368-0.01
	c0.304,0,0.609-0.012,0.915-0.016c0.25-0.004,0.5-0.008,0.751-0.015c0.3-0.007,0.602-0.021,0.902-0.031
	c0.261-0.01,0.521-0.018,0.781-0.029c0.29-0.014,0.582-0.031,0.873-0.047c0.275-0.018,0.551-0.03,0.827-0.05
	c0.278-0.018,0.559-0.042,0.839-0.064c0.29-0.022,0.581-0.043,0.873-0.068c0.265-0.023,0.53-0.052,0.796-0.078
	c0.311-0.03,0.621-0.061,0.934-0.095c0.245-0.026,0.492-0.058,0.738-0.087c0.333-0.04,0.667-0.077,1.002-0.122
	c0.229-0.03,0.459-0.063,0.688-0.096c0.354-0.049,0.709-0.098,1.064-0.15c0.214-0.032,0.429-0.069,0.643-0.104
	c0.373-0.06,0.746-0.117,1.121-0.182c0.203-0.035,0.407-0.074,0.611-0.11c0.388-0.069,0.775-0.139,1.166-0.213
	c0.193-0.037,0.388-0.078,0.582-0.116c0.401-0.08,0.803-0.159,1.207-0.245c0.188-0.039,0.377-0.084,0.565-0.125
	c0.411-0.09,0.822-0.179,1.235-0.274c0.193-0.046,0.389-0.095,0.583-0.142c0.409-0.097,0.817-0.193,1.229-0.297
	c0.219-0.055,0.439-0.115,0.659-0.172c0.389-0.1,0.776-0.199,1.167-0.306c0.259-0.069,0.519-0.146,0.778-0.218
	c0.354-0.099,0.707-0.195,1.062-0.299c0.334-0.097,0.669-0.199,1.004-0.301c0.284-0.086,0.567-0.168,0.854-0.256
	c0.621-0.191,1.246-0.392,1.873-0.598L741.92,599.627l42.715-14.695l59.104-20.333C921.027,534.375,835.699,216.951,578.254,261.164
	z M309.467,591.172c-1.919,34.993-4.049,77.27-17.289,103.495c-3.615,7.161-8.059,13.126-13.552,17.418
	c-0.038,0.03-0.075,0.062-0.113,0.091c-7.538,5.843-16.95,9.06-26.631,8.935c-19.542-0.25-40.183-14.121-48.732-47.558
	c-5.774-22.581-7.3-49.863-4.833-78.792c2.637-30.919,10.011-63.005,21.326-92.786c12.306-32.391,28.835-61.488,49.126-86.485
	c21.883-26.957,47.673-48.42,76.654-63.795c1.418-0.752,2.837-1.492,4.256-2.226c0.422-0.218,0.844-0.433,1.265-0.649
	c1.055-0.541,2.109-1.076,3.164-1.606c0.417-0.209,0.833-0.42,1.25-0.628c1.412-0.704,2.824-1.402,4.236-2.087
	c0.124-0.06,0.247-0.118,0.371-0.178c1.293-0.626,2.587-1.243,3.881-1.854c0.457-0.215,0.914-0.428,1.37-0.642
	c1.016-0.475,2.031-0.944,3.047-1.409c0.448-0.205,0.896-0.412,1.345-0.615c1.383-0.627,2.766-1.247,4.148-1.856
	c0.282-0.124,0.563-0.245,0.846-0.368c1.131-0.495,2.262-0.984,3.394-1.467c0.52-0.222,1.038-0.441,1.558-0.66
	c0.939-0.396,1.879-0.788,2.818-1.176c0.51-0.21,1.019-0.422,1.528-0.63c1.338-0.546,2.675-1.085,4.013-1.615
	c0.444-0.176,0.889-0.346,1.333-0.52c0.961-0.376,1.922-0.75,2.884-1.117c0.597-0.229,1.195-0.454,1.793-0.68
	c0.841-0.316,1.682-0.629,2.522-0.939c0.59-0.217,1.181-0.437,1.771-0.651c1.285-0.466,2.569-0.927,3.854-1.377
	c0.592-0.208,1.184-0.409,1.775-0.614c0.803-0.277,1.605-0.554,2.408-0.825c0.682-0.23,1.363-0.458,2.046-0.685
	c0.729-0.242,1.459-0.48,2.189-0.717c0.683-0.222,1.365-0.445,2.048-0.662c1.218-0.387,2.436-0.768,3.652-1.142
	c0.735-0.226,1.471-0.444,2.205-0.665c0.659-0.198,1.319-0.395,1.979-0.589c0.763-0.224,1.524-0.445,2.287-0.663
	c0.619-0.177,1.237-0.352,1.855-0.525c0.778-0.218,1.556-0.438,2.333-0.65c0.425-0.116,0.851-0.227,1.275-0.341
	c1.572-0.424,3.144-0.835,4.715-1.235c0.556-0.142,1.111-0.283,1.668-0.422c0.826-0.206,1.652-0.409,2.479-0.608
	c0.524-0.126,1.049-0.25,1.572-0.374c2.875-0.68,5.75-1.321,8.623-1.923c0.493-0.104,0.986-0.207,1.479-0.308
	c0.865-0.177,1.729-0.351,2.595-0.521c0.465-0.091,0.93-0.18,1.395-0.269c2.021-0.389,4.042-0.762,6.062-1.111
	c0.012-0.001,0.022-0.004,0.034-0.006C378.424,368.588,316.297,466.589,309.467,591.172z"/>
</svg>
